<svg xmlns="http://www.w3.org/2000/svg" viewBox="0 0 64 64" role="img" aria-label="Nineprime mark">
  <defs>
    <linearGradient id="sun" x1="0%" y1="0%" x2="100%" y2="100%">
      <stop offset="0%" stop-color="#FBBF24"/>
      <stop offset="100%" stop-color="#F97316"/>
    </linearGradient>
  </defs>
  <!-- outer subtle ring -->
  <circle cx="32" cy="32" r="20" fill="none" stroke="url(#sun)" stroke-width="2" opacity="0.35"/>

  <!-- rays -->
  <g stroke="url(#sun)" stroke-linecap="round" stroke-width="2">
    <line x1="32" y1="6" x2="32" y2="12"/>
    <line x1="32" y1="52" x2="32" y2="58"/>
    <line x1="6" y1="32" x2="12" y2="32"/>
    <line x1="52" y1="32" x2="58" y2="32"/>
    <line x1="14.8" y1="14.8" x2="19.1" y2="19.1"/>
    <line x1="44.9" y1="44.9" x2="49.2" y2="49.2"/>
    <line x1="49.2" y1="14.8" x2="44.9" y2="19.1"/>
    <line x1="19.1" y1="44.9" x2="14.8" y2="49.2"/>
  </g>

  <!-- swirl (abstract 9) -->
  <path d="M32 17c8 0 13 6 13 12.5S40.5 42 33 42c-5.8 0-10-4-10-8.8 0-4.3 3.5-7.7 7.8-7.7 3.5 0 6.4 2.8 6.4 6.3 0 3.1-2.5 5.6-5.6 5.6-2.5 0-4.5-2-4.5-4.5" fill="none" stroke="url(#sun)" stroke-width="4" stroke-linecap="round" stroke-linejoin="round"/>
</svg>


